<?xml version="1.0" encoding="utf-8"?>
<!-- Generator: Adobe Illustrator 16.0.0, SVG Export Plug-In . SVG Version: 6.00 Build 0)  -->
<!DOCTYPE svg PUBLIC "-//W3C//DTD SVG 1.1//EN" "http://www.w3.org/Graphics/SVG/1.1/DTD/svg11.dtd">
<svg version="1.1" xmlns="http://www.w3.org/2000/svg" xmlns:xlink="http://www.w3.org/1999/xlink" x="0px" y="0px"
	 width="102.367px" height="112.948px" viewBox="0 0 102.367 112.948" enable-background="new 0 0 102.367 112.948"
	 xml:space="preserve">
<g id="Back">
	<path fill="#C89B45" d="M61.929,77.062c4.462-2.929,20.397-10.477,5.868,5.386C53.268,98.309,47.462,95.149,47.747,95.051
		C48.032,94.953,57.467,79.99,61.929,77.062z"/>
	<polygon fill="#11160E" points="65.746,72.896 70.106,77.334 70.928,69.279 	"/>
	<polygon fill="#11160E" points="33.199,71.254 35.146,76.046 38.129,74.147 	"/>
	<path fill="#132445" d="M45.996,104.333l1.607,2c0,0,0.893-3.668,1.08-3.813s2.125,5.813,2.125,5.813l3.375-6.618l0.688,5.681
		l1.997-3.552l0.93-5.184l-7.239-3.563l-3.125,2.299L45.996,104.333z"/>
	<path fill="#116237" d="M95.507,42.716l-42.166-9.833c0,0-0.806,0.295-1.892,0.882c-1.085-0.586-1.892-0.882-1.892-0.882
		L7.392,42.716c0,0-9.144,2.122-4.405,5.395s33.822,13.939,48.197,2.272c0.095-0.077,0.174-0.151,0.267-0.228
		c0.093,0.077,0.172,0.151,0.267,0.228c14.375,11.667,43.459,1,48.197-2.272S95.507,42.716,95.507,42.716z"/>
	<path fill="#C89B45" d="M94.808,39.549l-42.166-9.833c0,0-0.48,0.177-1.192,0.523c-0.712-0.346-1.192-0.523-1.192-0.523
		L8.091,39.549c0,0-9.144,2.122-4.405,5.395c4.693,3.241,33.249,13.718,47.764,2.593c14.515,11.125,43.07,0.648,47.765-2.593
		C103.953,41.671,94.808,39.549,94.808,39.549z"/>
</g>
<g id="Body">
	<path fill="#C89B45" d="M83.321,45.455c0-17.508-14.194-31.702-31.701-31.702c-17.508,0-31.702,14.193-31.702,31.702
		c0,13.402,8.323,24.854,20.078,29.49c0,0-1.931,1.236-3.979,3.432c-2.044,2.191-7.388,10.444-6.474,13.647
		c0.816,2.863,2.462,3.889,4.84,3.634c0.525-0.056,0.333-1.983,0.333-1.983s1.916-0.776,2.469-1.646
		c0.808-1.272,3.216-3.995,3.216-3.995s0.774,6.724,0.265,10.443c-0.509,3.72-5.095,12.399-3.821,13.4s8.321,1.801,9.171,0
		c0.85-1.802,0.51-11.277,1.264-12.063c0.755-0.786,4.086-1.11,4.086-1.11s3.332,0.324,4.086,1.11
		c0.755,0.786,0.414,10.262,1.265,12.063c0.85,1.801,7.897,1.001,9.171,0s-3.312-9.681-3.821-13.4s0.265-10.443,0.265-10.443
		s2.408,2.723,3.216,3.995c0.618,0.972,2.513,1.646,2.513,1.646s-0.188,1.933,0.29,1.983c2.378,0.255,4.024-0.771,4.84-3.634
		c0.914-3.203-4.43-11.456-6.474-13.647c-2.048-2.195-3.449-3.432-3.449-3.432h-0.022C74.998,70.309,83.321,58.857,83.321,45.455z"
		/>
</g>
<g id="Face_Hair_Details">
	<path fill="#11160E" d="M85.417,31.549c-5.261-14.206-10.358,1.334-10.358,1.334s-12.805-9.377-18.889-11
		c-7.396-1.973-7.801-4.197-19.525,2.5c-6.625,3.785-15.67,0.888-19.21,12.214c-2.547,8.152,0.124,19.792,2.484,25.093
		c0.876,1.97,1.938,3.729,3.124,5.355l-0.934,6.604l4.168-2.846c0.12,0.119,0.236,0.241,0.357,0.358l-0.69,4.883l3.527-2.408
		c1.057,0.838,2.151,1.644,3.297,2.408c0,0-3.331-11.215-3.331-16.139s0-11.348,0-11.348s10.634-0.706,17.936-3.764
		c7.304-3.057,19.022-9.851,19.022-9.851s6.968,7.708,8.83,13.758c1.359,4.415,0.379,9.557-0.316,14.114
		C74.066,68.348,72,76.046,72,76.046s1.721-1.725,3.979-4.334l2.579,4.448l0.176-7.782c0.107-0.135,0.214-0.271,0.32-0.408
		l3.39,4.548l-0.235-8.923c1.174-1.779,2.241-3.605,3.038-5.381C88.983,49.893,89.19,41.739,85.417,31.549z"/>
	<path d="M76.53,54.496l-1.813-2.166H55.895l-1.77,2.166h5.861c-0.018,0.213-0.063,0.418-0.063,0.637
		c0,3.904,3.164,7.069,7.069,7.069s7.069-3.165,7.069-7.069c0-0.219-0.046-0.424-0.063-0.637H76.53z"/>
	<path d="M48.874,54.496L47.06,52.33H28.238L26.2,54.496h6.13c-0.018,0.213-0.064,0.418-0.064,0.637
		c0,3.904,3.165,7.069,7.069,7.069s7.07-3.165,7.07-7.069c0-0.219-0.046-0.424-0.064-0.637H48.874z"/>
	<path fill="#FFFFFF" d="M72.735,54.813c0,0,0,3.662-3.662,3.662s-3.662-3.662-3.662-3.662H72.735z"/>
	<path fill="#FFFFFF" d="M45.158,54.494c0,0,0,3.662-3.662,3.662s-3.662-3.662-3.662-3.662H45.158z"/>
	<path fill="#090405" d="M43.649,65.725c0,0,0.828,2.201,1.847,2.989c1.799,1.401,4.793,2.024,5.943,2.132
		c3.164,0.293,5.175-0.583,6.46-1.325c0.899-0.516,1.692-1.34,1.692-1.34s-2.266,0.442-2.835,0.573
		c-1.003,0.223-3.041,0.47-5.051,0.395c-2.011-0.072-3.849-0.95-5.354-1.696C44.843,66.7,43.649,65.725,43.649,65.725z"/>
</g>
<g id="Clothes">
	<path fill="#168763" d="M47.558,100.131c-0.625,0.75-1.02,8.293-1.02,8.293l-8.459-2.323l2.218-7.031l0.529-3.522l20.982-0.541
		l0.417,4.041l2.565,7.285l-8.594,2.092c0,0-0.306-7.293-0.857-8.173c-0.535-0.854-2.916-1.156-4.156-1.156
		S48.516,99.297,47.558,100.131z"/>
	<path fill="#116237" d="M39.996,74.945c0,0,5.581,2.762,11.623,2.762s11.624-2.762,11.624-2.762L62.33,88.033l-0.426,6.265
		l-21.088-0.412l-0.415-5.853L39.996,74.945z"/>
	<polygon fill="#132445" points="61.96,93.459 61.899,96.05 40.832,96.05 40.802,93.459 	"/>
	<path fill="#132445" d="M38.29,105.625c0,0,2.794,0.77,4.144,1.07s4.17,0.519,4.17,0.519s-0.117,3.519-0.588,4.663
		c-0.645,1.568-9.373,1.912-9.371-0.412C36.647,109.131,38.29,105.625,38.29,105.625z"/>
	<path fill="#132445" d="M64.483,105.625c0,0-2.794,0.77-4.144,1.07s-4.17,0.519-4.17,0.519s0.074,3.649,0.545,4.794
		c0.645,1.568,9.416,1.781,9.414-0.543C66.125,109.131,64.483,105.625,64.483,105.625z"/>
	<polygon fill="#132445" points="64.325,74.495 66.52,76.414 40.725,92.21 40.145,88.475 	"/>
	<path fill="#132445" d="M46.603,77.141c0,0-2.395-0.675-4.357-1.352c-1.625-0.561-3.187-1.232-3.187-1.232l-8.771,7.764
		c0,0,2.934-0.629,2.8-0.432c-0.303,0.443-1.675,2.182-1.675,2.182l4.242-0.901l0.008,3.797l3.917-1.229l-0.605,4.465l1.17-1.728
		l0.58,3.735l-7.292,10.548l6.593-2.109l-1.329,4.541l4.275-1.729l2.724,3.854l2.041-15.495L46.603,77.141z"/>
	<path fill="#132445" d="M56.773,77.115c0,0,2.491-0.728,4.454-1.404c1.625-0.561,3.098-1.216,3.098-1.216l8.861,7.747
		c0,0-2.935-0.629-2.801-0.432c0.303,0.443,1.676,2.182,1.676,2.182l-4.242-0.901l-0.009,3.797l-3.917-1.229l0.605,4.465
		l-1.17-1.728l-0.58,3.735l8.063,10.181l-6.289-1.742l1.33,4.541l-4.275-1.729l-2.725,3.854l-3.116-15.495L56.773,77.115z"/>
	<path fill="#168763" d="M34.683,96.05c-3.625,1.313-5.64-2.847-5.64-4.923c0-1.438,1.393-5.003,1.393-5.003
		s1.909,2.004,3.689,2.946s4.004,1.892,4.004,1.892s-0.654,1.088-1.154,1.713s-1.875,1.25-1.875,1.25S35.229,95.832,34.683,96.05z"
		/>
	<path fill="#168763" d="M67.906,96.05c3.625,1.313,5.641-2.847,5.641-4.923c0-1.438-1.393-5.003-1.393-5.003
		s-1.91,2.004-3.689,2.946c-1.781,0.942-4.004,1.892-4.004,1.892s0.654,1.088,1.154,1.713s1.875,1.25,1.875,1.25
		S67.359,95.832,67.906,96.05z"/>
	<polygon fill="#116237" points="71.871,85.07 72.515,87.104 64.517,91.089 64.159,90.188 	"/>
	<polygon fill="#116237" points="30.744,85.07 30.1,87.104 38.098,91.089 38.456,90.188 	"/>
</g>
<g id="Hat">
	<path fill="#C89B45" d="M23.212,34.985c0,0,2.653,1.274,2.014,2.399s-1.952,1.377-1.952,1.377S8.701,34.022,9.789,17.694
		c0.139-2.083,1.909,0,1.909,0S12.864,32.985,23.212,34.985z"/>
	<path fill="#116237" d="M99.828,37.717c-2.672-2.867-13.09-7.208-22.853-16.125C68.495,13.846,63.619,6.07,62.568,4.883
		C59.85,1.654,55.61-0.327,51.183-0.238c-4.427-0.088-6.938,0.684-11.385,5.121c-1.506,1.406-5.927,8.963-14.407,16.708
		C15.628,30.508,5.21,34.85,2.539,37.717c-2.484,2.666-2.875,4.541-2.314,7.541c0.294,1.571,2.983,3.5,4.876,3.5
		c7.06,0,3.301-3.704,36.165-5.815c0.077-0.005,6.98-0.429,9.645-0.435s9.691,0.435,9.691,0.435
		c32.864,2.111,29.833,6.108,36.893,6.108c1.893,0,4.354-2.222,4.648-3.793C102.703,42.258,102.312,40.383,99.828,37.717z"/>
	<path fill="#168763" d="M46.584,24.403c7.393,0,13.385-5.993,13.385-13.385c0-4.55-2.274-8.563-5.743-10.981
		c-0.994-0.193-2.012-0.295-3.043-0.275c-4.427-0.088-6.938,0.684-11.385,5.121c-0.932,0.87-2.982,4.095-6.415,8.26
		C34.404,19.523,39.917,24.403,46.584,24.403z"/>
	<path fill="#168763" d="M74.289,24.421c1.62,0,3.124-0.497,4.369-1.346c-0.562-0.481-1.123-0.973-1.683-1.484
		c-3.664-3.346-6.651-6.695-8.952-9.519c-0.94,1.285-1.503,2.865-1.503,4.58C66.52,20.942,69.999,24.421,74.289,24.421z"/>
	<path fill="#168763" d="M80.508,24.609c-1.276,0.438-2.2,1.636-2.2,3.062c0,1.795,1.455,3.25,3.25,3.25
		c1.743,0,3.155-1.376,3.235-3.1C83.389,26.833,81.955,25.77,80.508,24.609z"/>
	<circle fill="#168763" cx="59.49" cy="31.136" r="3.753"/>
	<circle fill="#168763" cx="14.02" cy="37.172" r="4.289"/>
	<path fill="#C89B45" d="M30.543,26.981c0,0,1.328,0.959,0.765,2.459c-0.646,1.725-1.583,1.708-1.583,1.708
		S16.029,25.904,17.899,9.648c0.627-5.453,1.909,0,1.909,0S20.194,24.981,30.543,26.981z"/>
	<path fill="#116237" d="M18.308,0.008c-3.283,0.313-7.498,9-4.833,12.265c1.726,2.115,8.52,1.98,10.649,0.188
		C28.47,8.801,21.591-0.305,18.308,0.008z"/>
	<path fill="#116237" d="M10.183,14.378c-2.313,0.254-5.063,5.879-3.375,7.754s5.125,2.188,7.75,0S12.496,14.124,10.183,14.378z"/>
</g>
</svg>
